<svg id="Capa_1" data-name="Capa 1" xmlns="http://www.w3.org/2000/svg" width="320px" height="39.501px" viewBox="0 0 1890 222"><defs><style>.cls-1{fill:#2c2c2b;}.cls-2{fill:#a89b87;}</style></defs><title>Mesa de trabajo 1</title><g id="Ilustración_51" data-name="Ilustración 51"><path class="cls-1" d="M473.71,41.36c-34.25,0-68.81,21.68-68.81,70.12,0,34,21.54,70.68,68.81,70.68,47,0,68.63-36.43,68.82-70.29h0c.1-20.5-6.87-38.85-19.64-51.69-12.25-12.32-29.25-18.82-49.18-18.82m0,125.88c-36.39,0-53.16-28.82-53.33-55.59-.1-16.45,5.31-31,15.21-41,9.37-9.43,22.55-14.41,38.12-14.41,37,0,53.52,27.82,53.52,55.38,0,26.77-16.75,55.58-53.52,55.58"/><path class="cls-1" d="M652.72,117.33c7.59-7.66,11.7-18.44,11.6-30.37-.19-21-14.61-43.54-45.8-43.54h-60.4v136.5h15.67V130.35H605.5l45.27,49.57h20.86L625.17,129.5c11.23-1.09,20.67-5.24,27.55-12.17m-78.93-59h44.73c8.72,0,16.09,2.8,21.32,8.09a28.45,28.45,0,0,1,7.87,20.33c-.13,13-5.5,28.48-30.32,28.48h-43.6Z"/><path class="cls-1" d="M1016,117.33c7.58-7.66,11.7-18.44,11.6-30.37-.19-21-14.6-43.54-45.8-43.54h-60.4v136.5h15.67V130.35h31.71L1014,179.92h20.87L988.44,129.5c11.23-1.09,20.67-5.24,27.55-12.17m-78.93-59h44.73c8.71,0,16.09,2.8,21.32,8.09A28.45,28.45,0,0,1,1011,86.76c-.13,13-5.5,28.48-30.32,28.48h-43.6Z"/><polygon class="cls-1" points="1249.28 117.42 1200.67 43.42 1184.41 43.42 1184.41 179.92 1200.08 179.92 1200.08 70.09 1246.3 140.27 1252.67 140.27 1298.51 70.14 1298.51 179.92 1313.99 179.92 1313.99 43.42 1297.35 43.42 1249.28 117.42"/><rect class="cls-1" x="1337.4" y="43.41" width="15.49" height="136.5"/><path class="cls-1" d="M87.13,43.41H40V58.52H87.13c36.23,0,53,26,53.51,51.71.31,15.24-5.08,29.66-14.77,39.55-9.52,9.71-22.92,14.84-38.74,14.84H40v15.3H87.13c20.57,0,38-6.7,50.39-19.38s19.23-31,18.8-50.43h0c-.78-33.19-22.47-66.69-69.19-66.69"/><path class="cls-1" d="M744.69,179.92h47.12V164.81H744.69c-36.23,0-53-26-53.51-51.7-.3-15.25,5.08-29.66,14.78-39.55,9.51-9.71,22.91-14.84,38.73-14.84h47.12V43.41H744.69c-20.57,0-38,6.71-50.39,19.39s-19.23,31-18.79,50.43h0c.77,33.19,22.46,66.69,69.18,66.69"/><path class="cls-1" d="M352.5,179.92h47.12V164.81H352.5c-36.23,0-53-26-53.51-51.7-.31-15.25,5.08-29.66,14.77-39.55,9.52-9.71,22.92-14.84,38.74-14.84h47.12V43.41H352.5c-20.57,0-38,6.71-50.39,19.39s-19.23,31-18.79,50.43h0c.77,33.19,22.46,66.69,69.18,66.69"/><path class="cls-1" d="M1437.66,179.92h47.11V164.81h-47.11c-36.24,0-53-26-53.52-51.7-.3-15.25,5.08-29.66,14.78-39.55,9.51-9.71,22.91-14.84,38.74-14.84h47.11V43.41h-47.11c-20.57,0-38,6.71-50.4,19.39s-19.23,31-18.79,50.43h0c.77,33.19,22.46,66.69,69.19,66.69"/><polygon class="cls-1" points="1568.37 43.41 1553.73 43.41 1492.49 179.92 1509.46 179.92 1530.17 132.82 1530.06 132.82 1560.95 62.83 1612.64 179.92 1629.59 179.92 1568.37 43.41"/><polygon class="cls-1" points="1115.23 43.41 1100.58 43.41 1039.35 179.92 1056.32 179.92 1077.03 132.82 1076.92 132.82 1107.81 62.83 1159.5 179.92 1176.45 179.92 1115.23 43.41"/><polygon class="cls-1" points="188.08 122.61 264.77 122.61 264.77 107.87 188.08 107.87 188.08 58.52 268.51 58.52 268.51 43.42 172.59 43.42 172.59 179.92 270.75 179.92 270.75 164.62 188.08 164.62 188.08 122.61"/><polygon class="cls-1" points="823.28 122.61 899.97 122.61 899.97 107.87 823.28 107.87 823.28 58.52 905.96 58.52 905.96 43.42 807.79 43.42 807.79 179.92 905.96 179.92 905.96 164.62 823.28 164.62 823.28 122.61"/></g><path class="cls-2" d="M1719.71,62c22.37,0,36.8,10.62,44.17,24.75A46.13,46.13,0,0,1,1772,75.21c9-9.17,21.59-14,36.47-14H1834a85.75,85.75,0,0,0-140.23.85Z"/><path class="cls-2" d="M1826.59,72.26h-18.08c-11.45,0-21.14,3.71-28,10.74s-10.91,17.58-10.69,28.62c.38,18.62,12.5,37.41,38.72,37.41h32.59a85.73,85.73,0,0,0-.37-76.77h-14.14Z"/><path class="cls-2" d="M1808.51,160c-22.37,0-36.8-10.62-44.17-24.75a45.91,45.91,0,0,1-8.17,11.57c-9,9.17-21.58,14-36.46,14h-25.32a85.75,85.75,0,0,0,140.23-.84Z"/><path class="cls-2" d="M1697,149.74h22.75c11.46,0,21.15-3.71,28-10.74s10.91-17.59,10.69-28.62c-.38-18.62-12.5-37.41-38.73-37.41h-32.39a85.73,85.73,0,0,0,.37,76.77Z"/></svg>